<svg width="33" height="32" viewBox="0 0 33 32" fill="none" xmlns="http://www.w3.org/2000/svg">
<path d="M21.3057 18.9538L27.3567 20.4358C27.5467 21.5238 27.5517 22.5348 27.3477 23.4268C27.1527 24.3018 26.7587 25.0588 26.1597 25.6568C24.0067 27.8098 19.7777 27.2888 15.5587 24.7008C14.0897 23.7948 12.6217 22.6428 11.2397 21.2608C9.85766 19.8788 8.70166 18.4058 7.79966 16.9318C5.21066 12.7218 4.68965 8.49277 6.84265 6.33977C7.44065 5.74177 8.19765 5.34677 9.07265 5.15177C9.96565 4.94777 10.9767 4.95277 12.0637 5.14277L13.5417 11.1888L11.2117 13.5188C12.1137 14.9918 13.2697 16.4648 14.6517 17.8478C16.0337 19.2308 17.5027 20.3818 18.9707 21.2878L21.3057 18.9538Z" stroke="black" stroke-width="2" stroke-miterlimit="10"/>
<path d="M17.5 11C19.709 11 21.5 12.791 21.5 15" stroke="black" stroke-width="2" stroke-miterlimit="10"/>
<path d="M17.5 6C22.471 6 26.5 10.029 26.5 15" stroke="black" stroke-width="2" stroke-miterlimit="10"/>
</svg>
