<svg width="20" height="20" viewBox="0 0 20 20" fill="none" xmlns="http://www.w3.org/2000/svg">
<path d="M13.0035 11.8459L16.7854 12.7722C16.9042 13.4522 16.9073 14.084 16.7798 14.6415C16.6579 15.1884 16.4117 15.6615 16.0373 16.0353C14.6917 17.3809 12.0485 17.0553 9.41166 15.4378C8.49353 14.8715 7.57603 14.1515 6.71228 13.2878C5.84853 12.424 5.12603 11.5034 4.56228 10.5822C2.94416 7.95092 2.61853 5.3078 3.96416 3.96217C4.33791 3.58842 4.81103 3.34155 5.35791 3.21967C5.91603 3.09217 6.54791 3.0953 7.22728 3.21405L8.15103 6.9928L6.69478 8.44905C7.25853 9.36967 7.98103 10.2903 8.84478 11.1547C9.70853 12.019 10.6267 12.7384 11.5442 13.3047L13.0035 11.8459Z" stroke="black" stroke-width="1.5" stroke-miterlimit="10"/>
<path d="M10.625 6.875C12.0056 6.875 13.125 7.99437 13.125 9.375" stroke="black" stroke-width="1.5" stroke-miterlimit="10"/>
<path d="M10.625 3.75C13.7319 3.75 16.25 6.26812 16.25 9.375" stroke="black" stroke-width="1.5" stroke-miterlimit="10"/>
</svg>
