<svg width="36" height="36" viewBox="0 0 36 36" fill="none" xmlns="http://www.w3.org/2000/svg">
<path fill-rule="evenodd" clip-rule="evenodd" d="M24.3 3.6H11.7C7.22649 3.6 3.6 7.22649 3.6 11.7V24.3C3.6 28.7735 7.22649 32.4 11.7 32.4H24.3C28.7735 32.4 32.4 28.7735 32.4 24.3V11.7C32.4 7.22649 28.7735 3.6 24.3 3.6ZM11.7 0C5.23827 0 0 5.23827 0 11.7V24.3C0 30.7617 5.23827 36 11.7 36H24.3C30.7617 36 36 30.7617 36 24.3V11.7C36 5.23827 30.7617 0 24.3 0H11.7ZM27.45 6.29956C27.3749 6.29958 27.3 6.30336 27.2253 6.31087C27.1507 6.31836 27.0765 6.32959 27.003 6.3445C26.9295 6.35938 26.8567 6.37792 26.7851 6.40006C26.7134 6.42223 26.6429 6.44797 26.5738 6.47718C26.5047 6.50641 26.4371 6.53908 26.3713 6.57507C26.3054 6.61102 26.2414 6.65024 26.1795 6.69258C26.1176 6.73496 26.0578 6.7804 26.0004 6.82874C25.9431 6.87706 25.8882 6.92821 25.8359 6.98201C25.7837 7.03584 25.7341 7.09225 25.6875 7.15103C25.6409 7.20979 25.5972 7.27084 25.5567 7.33396C25.5161 7.39706 25.4788 7.46215 25.4448 7.52898C25.4107 7.59585 25.3801 7.66439 25.3529 7.73433C25.3257 7.80423 25.302 7.87544 25.282 7.94771C25.2619 8.01999 25.2455 8.09324 25.2327 8.16717C25.22 8.24108 25.2109 8.31558 25.2056 8.3904C25.2018 8.44337 25.2 8.49646 25.2 8.54956C25.2 8.6246 25.2037 8.69958 25.2112 8.77424C25.2187 8.84888 25.2299 8.92309 25.2448 8.9966C25.2597 9.07012 25.2783 9.14285 25.3004 9.21452C25.3226 9.28618 25.3484 9.35668 25.3776 9.42577C25.4068 9.49487 25.4395 9.56248 25.4754 9.62832C25.5114 9.69415 25.5506 9.75814 25.5929 9.82005C25.6353 9.88194 25.6807 9.94167 25.729 9.99902C25.7774 10.0564 25.8285 10.1113 25.8823 10.1636C25.9362 10.2159 25.9925 10.2654 26.0513 10.312C26.1101 10.3587 26.1712 10.4023 26.2343 10.4429C26.2974 10.4834 26.3626 10.5208 26.4294 10.5548C26.4963 10.5888 26.5648 10.6195 26.6347 10.6467C26.7046 10.6739 26.7758 10.6975 26.8481 10.7176C26.9204 10.7377 26.9936 10.7541 27.0676 10.7668C27.1415 10.7796 27.216 10.7886 27.2908 10.794C27.3438 10.7977 27.3969 10.7996 27.45 10.7996C27.525 10.7996 27.5999 10.7958 27.6746 10.7884C27.7492 10.7809 27.8234 10.7696 27.8969 10.7547C27.9705 10.7398 28.0432 10.7212 28.1148 10.6991C28.1865 10.6769 28.257 10.6512 28.3261 10.6219C28.3952 10.5927 28.4628 10.5601 28.5286 10.5241C28.5945 10.4882 28.6585 10.4489 28.7204 10.4065C28.7823 10.3642 28.8421 10.3188 28.8995 10.2705C28.9568 10.2221 29.0117 10.1709 29.064 10.1171C29.1162 10.0633 29.1658 10.0069 29.2124 9.94819C29.259 9.88943 29.3027 9.82837 29.3432 9.76525C29.3838 9.70212 29.4211 9.637 29.4551 9.57014C29.4892 9.5033 29.5198 9.4348 29.547 9.36489C29.5742 9.29496 29.5979 9.22371 29.6179 9.15142C29.638 9.07913 29.6544 9.00588 29.6672 8.93195C29.6799 8.85804 29.689 8.78354 29.6943 8.70872C29.6981 8.65575 29.6999 8.60266 29.7 8.54956C29.6999 8.47456 29.6962 8.3996 29.6887 8.32498C29.6812 8.25034 29.67 8.17613 29.6551 8.10261C29.6402 8.02909 29.6216 7.95636 29.5995 7.8847C29.5773 7.81304 29.5515 7.74254 29.5223 7.67345C29.4931 7.60434 29.4604 7.53674 29.4245 7.4709C29.3885 7.40507 29.3493 7.34108 29.307 7.27917C29.2646 7.21725 29.2191 7.15748 29.1708 7.1001C29.1225 7.04273 29.0713 6.9878 29.0176 6.93553C28.9637 6.88327 28.9074 6.83372 28.8486 6.78709C28.7898 6.74049 28.7287 6.69685 28.6656 6.65634C28.6025 6.61581 28.5373 6.57846 28.4705 6.54444C28.4036 6.5104 28.3351 6.47973 28.2652 6.45254C28.1953 6.42535 28.1241 6.40168 28.0518 6.38161C27.9795 6.36153 27.9063 6.34508 27.8323 6.33232C27.7584 6.31959 27.6839 6.31055 27.6091 6.30526C27.5561 6.30148 27.503 6.29958 27.45 6.29956ZM23.4 18C23.4 20.9823 20.9823 23.4 18 23.4C15.0177 23.4 12.6 20.9823 12.6 18C12.6 15.0177 15.0177 12.6 18 12.6C20.9823 12.6 23.4 15.0177 23.4 18ZM27 18C27 22.9706 22.9706 27 18 27C13.0294 27 9 22.9706 9 18C9 13.0294 13.0294 9 18 9C22.9706 9 27 13.0294 27 18Z" fill="white"/>
</svg>
