<svg width="55" height="40" viewBox="0 0 55 40" fill="none" xmlns="http://www.w3.org/2000/svg">
<path d="M40 4.91667L45.1059 10L54 1" stroke="white" stroke-width="2" stroke-miterlimit="10"/>
<path d="M37.2999 34.6001H21.8999" stroke="white" stroke-width="2" stroke-miterlimit="10"/>
<path d="M8 12H31.8C34 12 36 12.8 37.5 14.3L47.8 24.6C50.4 27.2 51.1 31.3 49.5 34.6" stroke="white" stroke-width="2" stroke-miterlimit="10"/>
<path d="M10 34.6001H4" stroke="white" stroke-width="2" stroke-miterlimit="10"/>
<path d="M46.1999 34.5999C46.1999 37.0999 44.1999 38.9999 41.7999 38.9999C39.3999 38.9999 37.3999 36.9999 37.3999 34.5999" stroke="white" stroke-width="2" stroke-miterlimit="10"/>
<path d="M46.1999 34.6C46.1999 32.1 44.1999 30.2 41.7999 30.2C39.3999 30.2 37.3999 32.2 37.3999 34.6" stroke="white" stroke-width="2" stroke-miterlimit="10"/>
<path d="M18.9001 34.5999C18.9001 37.0999 16.9001 38.9999 14.5001 38.9999C12.1001 38.9999 10.1001 36.9999 10.1001 34.5999" stroke="white" stroke-width="2" stroke-miterlimit="10"/>
<path d="M18.9001 34.6C18.9001 32.1 16.9001 30.2 14.5001 30.2C12.1001 30.2 10.1001 32.2 10.1001 34.6" stroke="white" stroke-width="2" stroke-miterlimit="10"/>
<path d="M46.1998 23.3H31.7998V15" stroke="white" stroke-width="2" stroke-miterlimit="10"/>
<path d="M33.8 23.3H0" stroke="white" stroke-width="2" stroke-miterlimit="10"/>
</svg>
