<svg width="52" height="29" viewBox="0 0 52 29" fill="none" xmlns="http://www.w3.org/2000/svg">
<path d="M37.2999 23.6001H21.8999" stroke="black" stroke-width="2" stroke-miterlimit="10"/>
<path d="M8 1H31.8C34 1 36 1.8 37.5 3.3L47.8 13.6C50.4 16.2 51.1 20.3 49.5 23.6" stroke="black" stroke-width="2" stroke-miterlimit="10"/>
<path d="M10 23.6001H4" stroke="black" stroke-width="2" stroke-miterlimit="10"/>
<path d="M46.1999 23.6001C46.1999 26.1001 44.1999 28.0001 41.7999 28.0001C39.3999 28.0001 37.3999 26.0001 37.3999 23.6001" stroke="black" stroke-width="2" stroke-miterlimit="10"/>
<path d="M46.1999 23.6002C46.1999 21.1002 44.1999 19.2002 41.7999 19.2002C39.3999 19.2002 37.3999 21.2002 37.3999 23.6002" stroke="black" stroke-width="2" stroke-miterlimit="10"/>
<path d="M18.9001 23.6001C18.9001 26.1001 16.9001 28.0001 14.5001 28.0001C12.1001 28.0001 10.1001 26.0001 10.1001 23.6001" stroke="black" stroke-width="2" stroke-miterlimit="10"/>
<path d="M18.9001 23.6002C18.9001 21.1002 16.9001 19.2002 14.5001 19.2002C12.1001 19.2002 10.1001 21.2002 10.1001 23.6002" stroke="black" stroke-width="2" stroke-miterlimit="10"/>
<path d="M46.1998 12.3H31.7998V4" stroke="black" stroke-width="2" stroke-miterlimit="10"/>
<path d="M33.8 12.2998H0" stroke="black" stroke-width="2" stroke-miterlimit="10"/>
</svg>
