<svg width="82" height="48" viewBox="0 0 82 48" fill="none" xmlns="http://www.w3.org/2000/svg">
<path d="M16.2805 10.4541C16.2805 10.4541 22.5403 1.75618 34.0702 1.53313C44.2702 1.33689 48.0749 6.54348 57.8852 5.43383C65.4579 4.5783 75.6071 -0.254167 79.3342 5.7416C82.6603 11.0922 78.3064 16.9072 71.2038 17.5764C61.3003 18.5096 51.6636 14.3618 51.6636 14.3618" stroke="#306049" stroke-width="2" stroke-miterlimit="10" stroke-linecap="round"/>
<path d="M49.7634 13.5571C49.7634 13.5571 57.353 15.7242 57.353 23.2094C57.353 30.5802 51.5704 32.0781 51.5704 32.0781" stroke="#306049" stroke-width="2" stroke-miterlimit="10" stroke-linecap="round"/>
<path d="M47.4791 27.4164C47.4791 27.4164 54.3191 31.4639 51.7907 39.6719C49.0293 48.6366 38.77 47.2531 35.6655 43.927" stroke="#306049" stroke-width="2" stroke-miterlimit="10" stroke-linecap="round"/>
<path d="M40.1548 40.327C40.1548 40.327 31.5233 50.311 19.351 44.1755C8.46631 38.6894 10.7887 23.928 10.7887 23.928" stroke="#306049" stroke-width="2" stroke-miterlimit="10" stroke-linecap="round"/>
<path d="M25.1463 11.0287C25.1463 11.0287 28.6319 9.9261 33.2837 10.6602" stroke="#306049" stroke-width="2" stroke-miterlimit="10" stroke-linecap="round"/>
<path d="M23.8858 16.358C26.026 16.3114 29.4425 16.5373 33.0947 17.9745" stroke="#306049" stroke-width="2" stroke-miterlimit="10" stroke-linecap="round"/>
<path d="M21.8499 21.4362C23.6937 21.871 26.4368 22.7336 29.1121 24.3853" stroke="#306049" stroke-width="2" stroke-miterlimit="10" stroke-linecap="round"/>
<path d="M13.3385 38.6696C12.3813 38.8221 11.4086 38.8193 10.4387 38.6442C4.04061 37.4908 0.162492 29.2927 1.77755 20.3364C3.39402 11.3774 9.88955 5.05127 16.2891 6.20468C17.355 6.39668 18.3517 6.78491 19.2637 7.33974" stroke="#306049" stroke-width="2" stroke-miterlimit="10" stroke-linecap="round"/>
</svg>
