<svg width="82" height="48" viewBox="0 0 82 48" fill="none" xmlns="http://www.w3.org/2000/svg">
<path d="M35.633 43.8775C31.9341 45.9811 26.2024 47.6328 19.3553 44.174C16.6024 42.7905 14.6965 40.814 13.3835 38.6399L13.3412 38.6681C12.3812 38.8234 11.4071 38.8234 10.433 38.6399C4.03767 37.4964 0.169429 29.294 1.77884 20.3293C3.38825 11.3787 9.89649 5.054 16.2918 6.21165C17.3506 6.39518 18.353 6.79047 19.2706 7.34106C22.193 4.814 27.1906 1.66577 34.0659 1.53871C44.273 1.34106 48.0706 6.53636 57.8824 5.43518C65.4635 4.574 75.6141 -0.254231 79.3271 5.74577C82.6588 11.0964 78.3106 16.9128 71.2094 17.5764C62.1318 18.4234 53.28 15.0211 51.8541 14.4422C54.0988 15.6846 57.3459 18.3105 57.3459 23.2093C57.3459 30.5787 51.5718 32.0752 51.5718 32.0752L51.5012 32.1034C52.3624 34.0234 52.7577 36.5505 51.7835 39.6705C49.0306 48.6352 38.7671 47.2517 35.6612 43.9199L35.633 43.8775Z" fill="white"/>
<path d="M16.2805 10.4542C16.2805 10.4542 22.5403 1.75631 34.0702 1.53325C44.2702 1.33701 48.0749 6.5436 57.8852 5.43395C65.4579 4.57843 75.6071 -0.254045 79.3342 5.74172C82.6603 11.0923 78.3064 16.9074 71.2038 17.5765C61.3003 18.5097 51.6636 14.362 51.6636 14.362" stroke="#306049" stroke-width="2" stroke-miterlimit="10" stroke-linecap="round"/>
<path d="M49.7634 13.5571C49.7634 13.5571 57.353 15.7242 57.353 23.2094C57.353 30.5802 51.5704 32.0781 51.5704 32.0781" stroke="#306049" stroke-width="2" stroke-miterlimit="10" stroke-linecap="round"/>
<path d="M47.4791 27.4165C47.4791 27.4165 54.3191 31.464 51.7907 39.672C49.0293 48.6367 38.77 47.2532 35.6655 43.9271" stroke="#306049" stroke-width="2" stroke-miterlimit="10" stroke-linecap="round"/>
<path d="M40.1548 40.327C40.1548 40.327 31.5233 50.311 19.351 44.1755C8.46631 38.6894 10.7887 23.928 10.7887 23.928" stroke="#306049" stroke-width="2" stroke-miterlimit="10" stroke-linecap="round"/>
<path d="M25.1463 11.0288C25.1463 11.0288 28.6319 9.92622 33.2837 10.6603" stroke="#306049" stroke-width="2" stroke-miterlimit="10" stroke-linecap="round"/>
<path d="M23.8858 16.3583C26.026 16.3117 29.4425 16.5376 33.0947 17.9747" stroke="#306049" stroke-width="2" stroke-miterlimit="10" stroke-linecap="round"/>
<path d="M21.8499 21.4363C23.6937 21.8711 26.4368 22.7337 29.1121 24.3855" stroke="#306049" stroke-width="2" stroke-miterlimit="10" stroke-linecap="round"/>
<path d="M13.3385 38.6697C12.3813 38.8222 11.4086 38.8194 10.4387 38.6443C4.04061 37.4909 0.162492 29.2928 1.77755 20.3366C3.39402 11.3775 9.88955 5.05139 16.2891 6.2048C17.355 6.3968 18.3517 6.78504 19.2637 7.33986" stroke="#306049" stroke-width="2" stroke-miterlimit="10" stroke-linecap="round"/>
</svg>
