<svg width="32" height="32" viewBox="0 0 32 32" fill="none" xmlns="http://www.w3.org/2000/svg">
<path d="M16 28C22.6274 28 28 22.6274 28 16C28 9.37258 22.6274 4 16 4C9.37258 4 4 9.37258 4 16C4 22.6274 9.37258 28 16 28Z" stroke="black" stroke-width="2" stroke-miterlimit="10"/>
<path d="M11 19V14C11 11.239 13.239 9 16 9C18.761 9 21 11.239 21 14V19" stroke="black" stroke-width="2" stroke-miterlimit="10"/>
<path d="M7.44043 24.409L10.8784 23.358C12.1394 22.973 13.0004 21.808 13.0004 20.489V19" stroke="black" stroke-width="2" stroke-miterlimit="10"/>
<path d="M24.56 24.409L21.122 23.358C19.861 22.973 19 21.808 19 20.489V19" stroke="black" stroke-width="2" stroke-miterlimit="10"/>
</svg>
