<svg width="345" height="73" viewBox="0 0 345 73" fill="none" xmlns="http://www.w3.org/2000/svg">
<g clip-path="url(#clip0_243_305)">
<path fill-rule="evenodd" clip-rule="evenodd" d="M40.2794 32.3881V32.0025C47.1594 31.1032 61.2948 28.4695 61.2948 16.102C61.2948 3.02864 47.8474 0.137695 38.1529 0.137695H0V0.65153L6.67437 8.12021V63.7873L0 71.2553V71.7691H37.9024C49.5358 71.7691 65.9537 66.983 65.2975 49.7975C64.6213 32.1124 40.2794 32.3881 40.2794 32.3881ZM26.269 8.1195C26.269 4.52195 27.649 2.70687 31.3978 2.70687C36.1201 2.70687 42.0307 7.14003 42.0307 17.2906C42.0307 27.4411 37.1834 30.6531 33.9625 31.5525C32.1264 32.0649 28.4128 32.2371 26.2697 32.2946V8.1195H26.269ZM32.5238 69.392C28.6619 69.0291 26.269 66.5975 26.269 61.8985V33.9941H31.5227C38.6531 33.9941 44.7824 36.6278 44.7824 52.3681C44.7824 67.5557 36.964 69.8102 32.5238 69.392ZM295.242 8.93668C295.242 14.209 290.849 17.7357 285.431 17.7357C280.014 17.7357 275.621 14.209 275.621 8.93668C275.621 3.66437 280.014 0.137695 285.431 0.137695C290.849 0.137695 295.242 3.66437 295.242 8.93668ZM272.26 24.5575L295.902 20.5354V65.6664L300.906 71.2555V71.7693H272.26V71.2555L277.263 65.6664V30.6604L272.26 25.0713V24.5575ZM264.817 63.8029C260.689 63.8029 259.501 60.3982 259.501 56.094V25.0711H268.977L269.633 21.8839H259.501V4.15272H258.562C248.993 18.1255 235.671 24.0038 235.671 24.0038V25.0704H240.863V56.0933C240.863 56.1977 240.862 56.3043 240.862 56.4128L240.862 56.559C240.856 58.8938 240.849 62.1038 241.926 65.0368C243.405 69.0653 246.83 72.5722 254.059 72.5722C266.913 72.5722 270.947 60.0445 270.947 60.0445L270.208 59.7256C270.208 59.7256 268.569 63.8029 264.817 63.8029ZM86.0701 41.5424C85.9762 52.5286 91.9806 60.3339 101.363 60.3339C110.744 60.3339 115.576 52.2876 115.576 52.2876L116.217 52.4967C113.809 63.5147 106.71 72.5887 94.0761 72.5887C80.0029 72.5887 69.2444 62.3581 69.2444 46.5709C69.2444 29.8823 80.1947 20.5532 93.7022 20.5532C107.21 20.5532 115.967 28.0835 115.966 41.0605H86.0756C86.0735 41.2207 86.0714 41.3815 86.0701 41.5424ZM99.7673 34.5422C100.628 28.3039 97.1404 22.3661 92.7306 22.3661C88.6541 22.3661 86.5027 29.367 86.1266 39.1037H91.1988C95.0766 39.1037 99.2021 38.6366 99.7673 34.5422ZM167.496 55.6121C167.309 60.8019 167.18 64.3677 169.623 64.6706C172.231 64.9938 173.618 59.3742 173.618 59.3742L174.502 59.7562C172.438 67.7543 167.559 72.5886 160.148 72.5886C151.573 72.5886 149.373 66.9308 149.09 61.9902C147.187 65.9477 142.742 72.3186 133.785 72.5886C120.375 72.994 117.372 61.8505 121.244 54.2791C125.139 46.6609 138.54 40.5522 149.853 38.886C149.932 36.5217 149.991 34.567 150.015 33.4479C150.025 32.9417 150.045 32.4162 150.065 31.8821L150.066 31.881C150.226 27.6369 150.407 22.848 146.074 22.848C139.132 22.848 135.661 32.6775 134.63 41.0611H120.933C123.934 27.2833 135.379 20.5354 149.546 20.5354C160.804 20.5354 168.122 25.6432 168.028 33.545C167.954 39.8088 167.747 47.6141 167.559 53.7816C167.54 54.4104 167.518 55.0208 167.496 55.6102L167.496 55.6121ZM149.108 56.6137C149.145 55.9489 149.196 55.5272 149.257 55.289C149.416 51.1209 149.637 45.2051 149.801 40.4353C139.854 43.2228 137.256 51.6943 137.256 57.2508C137.256 63.2255 140.227 64.4459 142.573 64.4459C144.918 64.4459 148.791 62.353 149.108 56.6137ZM229.201 20.5354L205.559 24.5575V25.0713L210.562 30.6604V59.9766C209.403 61.2998 206.844 63.8038 204.083 63.8038C199.954 63.8038 197.868 60.399 197.868 56.0949L197.867 56.0942V20.5354L174.224 24.5575V25.0713L179.228 30.6604V56.0942H179.23V56.1971C179.229 58.5502 179.229 61.7936 180.501 64.8244C182.35 69.2335 186.792 72.8594 194.017 72.5723C203.818 72.1839 209.097 65.2362 211.217 61.5543C211.217 61.5543 211.026 67.4644 209.591 71.7693H234.206V71.2555L229.202 65.6664V20.5354H229.201ZM317.855 28.0839C317.855 30.6538 319.669 33.3987 324.621 35.3796C325.199 35.6106 325.836 35.8518 326.518 36.1099C333.455 38.7367 345 43.108 345 56.0939C345 67.7215 334.368 72.8613 325.736 72.8613C323.825 72.8613 321.591 72.3852 319.289 71.8949C316.845 71.3744 314.326 70.8378 312.039 70.8378C308.255 70.8378 305.847 71.8981 305.847 71.8981V50.7621H306.41C306.41 50.7621 310.288 58.9849 314.353 63.9319C318.418 68.8781 322.171 70.9342 325.736 70.9342C329.301 70.9342 331.678 68.6216 331.678 65.2487C331.678 61.8758 328.988 58.021 320.857 54.7445C312.726 51.468 305.106 47.1851 305.346 36.885C305.596 26.1561 313.351 20.6634 323.358 20.6634C325.173 20.6634 327.001 20.9671 328.85 21.2741C332.609 21.8985 336.451 22.5367 340.434 20.6634L341.372 39.5832H340.809C340.809 39.5832 338.058 33.4476 334.805 29.3235C331.552 25.1993 327.988 22.3658 323.672 22.3658C319.356 22.3658 317.855 25.514 317.855 28.0839Z" fill="white"/>
</g>
<defs>
<clipPath id="clip0_243_305">
<rect width="345" height="73" fill="white"/>
</clipPath>
</defs>
</svg>
